PathFileType	4	(X/Y/Z)	C:/Users/beibeiliu/ov580/test_trc/User3\sequence.20_training_dense_left.trc
DataRate	CameraRate	NumFrames	NumMarkers	Units	OrigDataRate	OrigDataStartFrame	OrigNumFrames
120	120	19	19	mm	120	44	346
Frame#	Time	ThumbCMC			ThumbMCP			ThumbIP			ThumbTip			IndexMCP			IndexPIP			IndexTip			MiddleMCP			MiddlePIP			MiddleTip			RingMCP			RingPIP			RingTip			PinkyMCP			PinkyPIP			PinkyTip			BackHand1			BackHand2			BackHand3	
		X0	Y0	Z0	X1	Y1	Z1	X2	Y2	Z2	X3	Y3	Z3	X4	Y4	Z4	X5	Y5	Z5	X6	Y6	Z6	X7	Y7	Z7	X8	Y8	Z8	X9	Y9	Z9	X10	Y10	Z10	X11	Y11	Z11	X12	Y12	Z12	X13	Y13	Z13	X14	Y14	Z14	X15	Y15	Z15	X16	Y16	Z16	X17	Y17	Z17	X18	Y18	Z18	
43	0.358333	-196.135	-21.549	48.306	-175.268	-29.9443	25.098	-169.492	-40.844	-2.16517	-191.401	-52.9989	-21.5059	-199.349	-0.341782	-29.5915	-180.782	-18.02	-48.9191	-181.122	-41.2991	-23.8775	-215.489	-6.81025	-39.158	-197.178	-32.6439	-53.9621	-203.293	-47.3058	-19.5567	-228.756	-17.1977	-40.0312	-218.522	-40.9214	-51.3972	-218.907	-54.9774	-18.0526	-243.845	-27.0737	-31.5163	-231.855	-48.3904	-42.8728	-228.013	-65.4501	-19.4979	-250.132	-5.54793	13.0831	-263.544	-12.655	41.7078	-225.258	0.269272	39.258	
44	0.366667	-200.552	-22.3734	48.7399	-171.962	-30.1843	25.5949	-167.426	-40.1747	-7.66025	-190.64	-50.6676	-19.1548	-197.062	0.107668	-27.3064	-183.088	-18.2924	-49.8878	-183.476	-41.4109	-22.186	-213.422	-5.2508	-37.308	-200.928	-28.6206	-56.8566	-201.882	-48.1833	-20.3868	-230.358	-17.4891	-41.1954	-219.284	-40.3304	-52.6318	-219.029	-55.3086	-19.4679	-247.259	-27.7254	-27.8824	-232.125	-49.882	-42.9425	-226.169	-64.8781	-16.7974	-251.438	-7.34125	14.7051	-258.538	-11.1648	42.1265	-224.015	2.43066	35.9024	
45	0.375	-197.614	-21.6361	47.335	-172.921	-29.1362	23.4053	-170.229	-40.0858	-2.46011	-185.486	-51.3178	-19.1849	-196.711	0.225374	-28.5677	-181.661	-20.6908	-48.1052	-181.978	-40.5285	-21.8272	-212.848	-5.23846	-40.8619	-202.518	-32.2569	-55.8069	-202.513	-49.185	-22.6621	-228.234	-14.8238	-37.5244	-218.573	-38.7396	-52.5816	-217.819	-54.2914	-18.6086	-246.134	-27.3051	-32.1889	-234.549	-48.572	-44.4659	-227.336	-66.4717	-22.8779	-254.84	-8.15305	14.3011	-259.762	-9.81592	44.3099	-225.492	0.662834	37.4847	
46	0.383333	-195.549	-18.8837	45.8402	-170.428	-27.7002	25.3939	-168.168	-37.802	-2.97346	-190.046	-49.6398	-18.5417	-196.858	0.373428	-27.9052	-183.98	-19.6555	-50.3079	-185.016	-42.1748	-23.4014	-211.579	-3.97023	-40.5833	-198.713	-32.096	-55.9545	-202.748	-49.022	-23.0405	-233.915	-16.6691	-38.5546	-217.42	-39.6726	-52.7949	-219.096	-56.5876	-22.3649	-246.168	-27.2943	-32.7632	-233.426	-44.3545	-45.3328	-228.096	-65.3076	-24.2922	-250.569	-6.0367	13.3382	-260.663	-11.6699	43.3358	-224.11	0.906857	36.7077	
47	0.391667	-195.483	-17.9999	47.3372	-175.225	-24.7437	24.6268	-164.899	-34.494	-6.19888	-183.475	-49.3174	-22.3386	-197.336	0.540286	-31.8446	-182.191	-17.8816	-49.3443	-179.629	-40.0909	-21.8214	-215.002	-5.17832	-38.9386	-201.653	-30.9919	-57.7265	-200.388	-48.7441	-21.6672	-231.258	-18.0543	-41.8499	-217.019	-39.9504	-52.5714	-216.345	-56.8746	-21.302	-245.764	-29.1743	-29.097	-232.144	-48.8833	-44.2338	-225.3	-67.3323	-21.0366	-252.618	-9.99712	15.0646	-259.086	-9.75338	40.1779	-225.801	2.73392	35.8348	
48	0.4	-199.528	-14.8798	49.5978	-175.882	-19.7442	26.6383	-163.305	-28.587	-3.83921	-184.04	-44.5141	-18.7982	-199.775	1.96896	-30.4615	-183.958	-18.6623	-50.2006	-179.511	-38.5777	-22.8426	-217.259	-7.11013	-40.28	-196.495	-30.001	-56.1228	-196.763	-46.6485	-19.2417	-229.907	-18.975	-37.0208	-218.009	-44.4069	-52.2107	-209.87	-54.1077	-19.4774	-245.474	-33.3062	-33.3073	-226.971	-52.0996	-43.0449	-220.516	-68.7168	-23.3938	-256.052	-11.5092	13.4817	-261.921	-13.7344	37.5785	-232.74	1.12745	34.7033	
49	0.408333	-198.051	-7.72978	46.7299	-177.696	-11.2541	27.0581	-165.572	-20.1945	-0.905291	-178.804	-39.1976	-19.6654	-202.622	3.23174	-33.3119	-182.283	-15.3765	-48.8885	-176.042	-31.4994	-22.673	-217.092	-6.50519	-42.4605	-198.001	-28.6666	-56.8312	-197.88	-47.3143	-19.9815	-231.575	-21.3292	-40.3223	-212.021	-43.6434	-51.4274	-207.58	-57.4622	-21.3498	-243.45	-35.3747	-26.0188	-224.015	-50.1281	-42.3985	-213.897	-72.7144	-21.1864	-255.947	-12.2115	9.6004	-261.251	-15.6681	38.8345	-233.596	2.84	32.3595	
50	0.416667	-205.471	-1.62997	50.0725	-180.684	0.899897	25.9302	-167.886	-8.27845	0.762855	-173.612	-30.0443	-18.9325	-206.583	6.58309	-29.7192	-186.822	-11.8257	-51.379	-173.779	-23.4085	-24.4384	-219.831	-8.67703	-42.8445	-196.517	-27.0578	-57.4232	-191.014	-43.3229	-23.4182	-230.903	-23.578	-38.4208	-208.98	-45.496	-50.6855	-200.832	-53.4905	-17.9557	-239.255	-41.0604	-30.7208	-220.472	-55.2597	-43.0801	-203.805	-67.7658	-21.7674	-257.964	-17.7866	10.2935	-267.101	-20.4092	35.3495	-240.169	3.24414	29.4475	
51	0.425	-212.511	7.80182	48.2188	-186.076	16.3654	26.4935	-173.646	5.37075	0.4597	-176.574	-20.8345	-16.7177	-214.313	6.6584	-34.86	-189.399	-4.27226	-52.3223	-175.678	-14.9066	-22.4669	-221.734	-9.51475	-43.8959	-195.012	-19.5189	-59.0212	-186.753	-35.7156	-18.2251	-227.603	-24.8979	-39.4937	-201.17	-39.9384	-49.6764	-193.959	-49.2475	-19.4851	-236.949	-47.0098	-28.3394	-209.318	-53.8769	-39.2539	-195.403	-58.8611	-15.5543	-256.634	-22.466	7.40945	-267.52	-28.3146	34.6889	-245.778	4.91826	26.0049	
52	0.433333	-223.447	12.9536	41.1783	-200.448	26.3449	24.5892	-179.947	19.3278	-6.83512	-178.547	-8.60822	-13.539	-220.326	4.75469	-36.1591	-193.142	-0.717669	-54.145	-176.978	-5.05462	-23.9434	-221.957	-13.2354	-49.1843	-192.803	-16.4621	-58.869	-180.485	-20.6946	-19.1358	-226.179	-32.3268	-38.4247	-196.391	-36.246	-48.6269	-186.759	-39.2988	-15.7863	-227.999	-49.3574	-27.4055	-200.361	-50.4571	-36.0508	-184.564	-53.5403	-8.6492	-253.785	-28.3057	5.31279	-268.095	-34.1875	35.1444	-251.597	2.6305	20.4919	
53	0.441667	-232.512	19.2551	41.4337	-210.426	34.6947	16.8853	-188.207	29.2439	-6.78784	-181.571	2.85073	-10.1823	-223.913	4.88943	-37.1125	-194.178	4.99972	-54.0361	-177.728	8.3191	-27.6264	-220.818	-10.5098	-48.5272	-188.785	-13.0256	-56.1904	-179.488	-13.0509	-18.1606	-220.419	-27.9701	-38.9621	-192.165	-32.8514	-46.7445	-179.428	-27.5542	-17.0956	-221.241	-46.4459	-23.6446	-194.431	-43.1962	-34.2159	-178.253	-40.4176	-9.29028	-254.65	-35.8769	8.24183	-264.319	-37.2551	33.1605	-256.475	0.212152	17.9209	
54	0.45	-240.789	21.3323	33.866	-222.122	37.44	16.4777	-197.817	36.0044	-6.79144	-185.294	11.7243	-8.94388	-225.667	3.78579	-39.4356	-193.685	9.93731	-53.5993	-181.67	17.1863	-26.8877	-220.009	-15.9946	-46.7861	-187.867	-6.82524	-54.3458	-179.841	-1.64765	-16.3252	-215.111	-32.3931	-36.1844	-184.243	-28.5072	-42.1621	-178.194	-17.4461	-13.6048	-212.306	-45.4017	-23.628	-187.467	-38.1633	-31.2328	-176.748	-29.0346	-5.2941	-249.236	-38.9722	6.15988	-258.591	-42.9053	34.9612	-258.55	-4.69901	17.5675	
55	0.458333	-248.834	18.1024	31.8825	-232.028	39.7003	10.7356	-208.336	37.862	-6.88631	-187.069	18.3993	-10.7525	-228.051	1.39926	-39.0939	-198.882	12.0842	-54.1397	-188.385	24.0345	-25.7047	-218.646	-13.3313	-46.7789	-187.821	0.434783	-54.9565	-180.624	5.35637	-18.5856	-212.496	-27.8794	-33.7258	-179.074	-18.5695	-39.1418	-177.949	-7.33974	-10.4265	-205.338	-44.0359	-19.8148	-183.535	-30.8104	-28.9862	-174.012	-19.4905	2.14637	-244.351	-38.4125	7.3706	-255.94	-42.5357	31.8164	-263.693	-11.9871	16.6019	
56	0.466667	-259.56	16.3108	26.0134	-246.806	39.5324	5.88837	-220.213	42.8686	-12.0321	-196.522	26.9671	-10.4412	-230.075	0.16493	-43.6272	-204.824	16.118	-56.3319	-198.378	31.7317	-29.5846	-215.976	-14.2452	-48.2502	-187.859	3.53097	-52.1024	-187.751	11.9981	-14.1711	-207.473	-26.6994	-31.6735	-178.222	-10.6755	-35.8681	-184.391	3.95036	-7.44939	-201.258	-38.0296	-13.4427	-180.036	-23.4893	-25.4747	-175.27	-8.41025	4.00141	-236.902	-44.3288	4.67471	-252.137	-49.5402	34.7589	-262.639	-15.6225	11.4395	
57	0.475	-267.834	9.45566	26.606	-260.587	32.3979	3.45076	-231.57	36.3272	-13.4532	-210.183	26.5572	-8.6556	-230.714	-2.21965	-46.4431	-207.477	14.8522	-56.2481	-208.45	32.7189	-28.8702	-214.57	-15.9745	-47.1919	-192.148	4.65627	-54.424	-196.662	17.9112	-13.8844	-203.579	-23.0302	-34.818	-181.157	-2.26324	-37.2819	-187.229	10.5307	-9.50686	-196.073	-33.9956	-12.5488	-175.611	-13.584	-20.6739	-177.132	2.2434	5.03162	-233.054	-43.7373	9.62103	-250.253	-47.8043	33.1701	-264.076	-24.0056	12.2551	
58	0.483333	-278.163	5.51208	23.686	-270.682	26.1716	-0.507082	-246.701	35.5464	-16.2937	-219.007	26.2351	-10.7316	-235.642	-6.68194	-44.5571	-214.571	13.2776	-59.0731	-217.922	33.0809	-28.6777	-216.678	-16.8809	-44.3868	-196.43	10.7959	-51.456	-206.363	22.1516	-15.3364	-205.074	-23.2187	-30.8605	-184.557	1.38626	-36.2139	-193.47	15.8874	-10.8637	-194.98	-30.0501	-12.0773	-181.25	-8.00045	-21.9136	-186.682	9.12168	5.7575	-234.042	-41.8758	6.84687	-246.14	-49.9514	36.5818	-263.867	-29.6795	10.5869	
59	0.491667	-284.193	0.874541	23.7018	-278.978	21.3632	-2.32018	-255.001	31.737	-18.3029	-228.959	24.1609	-9.75844	-239.752	-8.15446	-49.7357	-224.056	17.1632	-60.7572	-225.454	31.9453	-35.1498	-218.53	-17.1469	-47.6631	-204.273	9.56305	-56.0651	-211.452	21.1023	-18.5788	-206.747	-21.6256	-34.077	-192.296	5.47045	-38.6719	-202.969	17.7242	-8.59051	-198.336	-26.569	-10.3287	-185.207	-1.10695	-20.2983	-193.577	10.4276	2.23143	-232.57	-45.7956	12.9669	-244.593	-52.454	36.8514	-269.2	-31.7494	10.041	
60	0.5	-288.345	-2.77456	23.406	-284.968	16.7184	-2.72858	-258.624	29.4249	-22.8245	-235.898	22.3719	-12.3724	-246.098	-11.4214	-44.398	-227.728	10.9552	-62.1837	-232.294	31.031	-32.1081	-227.251	-16.6874	-48.8453	-210.014	8.11164	-56.9466	-222.895	23.6676	-18.691	-211.584	-22.358	-34.109	-195.281	3.76263	-39.5873	-207.422	18.7932	-14.4652	-203.202	-24.6651	-13.12	-189.431	-2.1458	-22.402	-196.702	13.7353	2.51365	-235.773	-44.0477	7.77014	-248.478	-51.3721	38.0868	-266.731	-34.8343	12.7419	
61	0.508333	-291.051	-3.5061	22.2053	-289.363	16.8543	-3.72545	-266.344	29.2849	-22.3038	-236.097	23.1598	-15.0763	-248.115	-13.7172	-44.1779	-231.345	10.6213	-62.1096	-239.9	31.37	-35.9867	-229.156	-16.671	-50.0247	-213.51	10.4768	-54.9121	-226.116	22.1746	-19.5356	-213.121	-23.3841	-32.7879	-200.897	3.93408	-41.8603	-211.116	16.4268	-11.4957	-202.596	-25.9786	-16.0068	-194.373	0.00157477	-23.4973	-204.671	11.6227	1.09642	-236.39	-44.6867	7.85634	-248.242	-50.8694	35.2778	-275.556	-36.1253	12.38	
